<?xml version="1.0" encoding="UTF-8"?> <!-- Generator: Adobe Illustrator 26.0.3, SVG Export Plug-In . SVG Version: 6.00 Build 0) --> <svg xmlns="http://www.w3.org/2000/svg" xmlns:xlink="http://www.w3.org/1999/xlink" version="1.1" id="Layer_2_00000149383625220561656980000002447554827364227457_" x="0px" y="0px" width="440px" height="399.89px" viewBox="0 0 440 399.89" style="enable-background:new 0 0 440 399.89;" xml:space="preserve"> <style type="text/css"> .st0{fill:#95A695;} .st1{fill:#633C21;} </style> <g> <g> <g> <path class="st0" d="M345.12,273.82c-0.24-2.09-0.01-4.13,1.3-5.94c0.6-0.84,0.45-1.45-0.71-1.69c-1.2-0.24-1.51-1.18-1.54-2.29 c-0.03-1.52-0.09-3.04-0.15-4.56c-0.23-3.37-0.47-5.66-0.59-7.53s-0.06-4.63-0.06-5.21c0-0.59-0.41-1.7-0.53-1.93 c-0.12-0.24-0.06-0.41,0.35-1s-0.53-1.7-0.59-2.11s0.24-0.7,0.35-0.88c0.11-0.17-0.12-5.92-0.12-5.92 c-0.64-0.64-0.24-0.92-0.24-0.92c0.07-0.15,0.44-0.71,0.53-1.26c0.07-0.45-0.02-3.01-0.1-4.06c-0.07-1.04-0.12-6.67-0.29-7.33 s-0.34-3.4-0.15-3.86s0.51-1.75,0.56-3.15c0.05-1.41,0.17-7.59-0.17-7.84c-0.34-0.24-0.02-0.75,0.31-1.04 c0.34-0.29,0.31-2.81,0.07-3.73s-0.27-2.23,0.12-2.86c0.39-0.63,0.77-1.62,0.41-1.99c-0.36-0.36-0.73-0.46-0.22-1.21 s0.92-2.91,0.46-3.47c-0.46-0.56-0.31-0.51,0.05-0.87s0.68-0.95,0.46-1.21c-0.22-0.27-0.46-0.61-0.34-1.04 c0.12-0.44,0.53-2.81,0.65-3.66s-1.21-2.4-2.26-2.26s-1.96,1.38-2.72,3.4c-0.75,2.01-0.58,4.12-0.58,4.42s0.24,0.36,0.15,0.58 s-0.46,0.73-0.63,1.19s-0.1,4.71,0.29,4.9c0.39,0.19,0.31,0.31-0.15,0.53s-0.73,1.12,0.27,1.09c1-0.02,0.22,0.61-0.22,0.9 s-0.47,1.72-0.27,2.02s0.3,1.87-0.1,2.57c-0.4,0.69-0.79,3.95-0.4,5.03c0.39,1.09,0.1,2.76,0,4.54c-0.1,1.77,0,9.96,0.64,15.18 c0.25,6.09,0.47,12.19,0.64,18.28c0.04,1.4,0.01,2.73,1.14,3.38c-0.38,0.65-0.97,1.2-0.94,1.7c0.14,2,0.5,3.98,0.72,5.98 c0.21,1.98,0.39,3.96,0.49,5.95c0.02,0.34-0.36,0.96-0.64,1.01c-1.92,0.36-3.85,0.72-5.8,0.83c-1,0.05-1.98-0.4-1.73-1.87 c0.66-3.97,1.3-7.94,1.85-11.92c0.44-3.14,0.8-6.3,1.04-9.46c0.07-0.91-0.39-1.87-0.61-2.81c-0.16,0-0.31,0-0.47-0.01 c-0.22,0.39-0.55,0.74-0.65,1.16c-0.4,1.59-0.8,3.19-1.07,4.81c-0.67,3.91-1.25,7.84-1.94,11.75c-0.35,1.98-0.96,3.92-1.22,5.92 c-0.31,2.31-0.42,2.57-2.73,2.85c-1.15,0.14-2.52-0.06-1.88,1.35c0.44,0.6,0.41,1.7-0.47,1.7s-1.05,0.94,0.04,1.23 c0.17,0.1,0.74,0.45,1.33,0.74c0.97,0.47,1.26,1.25,1.06,2.24c-1.22,5.82-2.7,11.56-5.03,17.07c-1.63,3.86-2.83,7.89-4.26,11.84 c-0.33,0.91-0.08,1.39,0.83,1.67c2.13,0.65,4.58-0.79,5.01-2.94c0.25-1.25,0.5-2.5,0.84-3.72c2.21-8.18,4.47-16.34,6.64-24.52 c0.4-1.51,1.22-2.53,2.68-2.82c1.7-0.34,3.45-0.54,5.18-0.61c1.99-0.09,2.66,0.46,3.13,2.43c0.41,2.74,0.12,4.38,0.65,5.08 s1.23,1.11,0.76,3.22c-0.47,2.11,0.12,3.69,0.82,4.22s0.24,1.29,0.17,2.05c-0.06,0.76-0.29,2.75,0.64,3.46 c0.94,0.7,0.47,3.28,0.47,4.33s0.82,3.28,0.88,3.57s0.12,1,0.12,1h1.82c0,0,0.06-4.57-0.64-6.5s-1.52-5.51-1.64-7.27 c-0.12-1.76-0.94-8.44-0.88-8.73C345.42,276.66,345.12,273.82,345.12,273.82z"></path> <path class="st0" d="M357.18,350.83c-0.03-0.31-0.12-0.63-0.26-0.91c-1.42-2.86-2.73-5.78-4.33-8.53 c-1.03-1.77-2.29-3.53-3.82-4.85c-7.48-6.42-16.15-7.44-25.42-5.1c-1.25,0.31-2.42,0.99-2.9,3.01c2.43-0.31,4.54-0.55,6.64-0.85 c0.73-0.1,1.45-0.55,2.15-0.49c2.11,0.17,4.21,0.46,6.29,0.82c0.61,0.11,1.15,0.6,1.72,0.91c-0.06,0.21-0.12,0.41-0.17,0.62 c-1.55-0.12-3.11-0.12-4.63-0.38c-4.71-0.81-9.06,0.11-13.19,2.41c-5.76,3.21-8.35,8.73-10.37,14.56 c-0.29,0.82,0.44,2.25,1.09,3.08c0.67,0.86,1.74,0.4,2.59-0.18c0.25-0.17,0.59-0.26,0.9-0.3c2.73-0.34,5.45-0.78,8.19-0.97 c3.88-0.27,6.57-1.84,7.79-5.78c1.13-3.66,3.67-5.97,7.54-6.76c1.58-0.32,3.1-0.91,4.76-1.41c-0.41-0.87-0.74-1.56-1.06-2.25 c0.07-0.15,0.15-0.31,0.22-0.46c0.78,0.24,1.71,0.29,2.31,0.76c2.77,2.13,5.79,4.06,7.14,7.55c0.21,0.54,0.57,1.02,0.84,1.53 c0.94,1.78,2.02,3.51,2.76,5.37c0.45,1.95,0.91,2.61,1.31,2.29c0.4-0.31,0.63-1.03,1-0.55s0.95,0.95,1.35,0.77 c0.4-0.17,1.32-0.83,0.46-1.29c-0.86-0.46-1.95-0.86-1.61-1.12C356.82,352.1,357.32,351.84,357.18,350.83z"></path> <path class="st0" d="M315.98,322.76c-2.81-0.15-5.04-0.21-7.25-0.4c-1.66-0.14-1.96-0.7-1.28-2.19c1.8-3.98,4.84-4.93,8.53-4.71 c3.27,0.2,6.53,0.51,9.78,0.89c9.24,1.07,18.52,0.99,27.79,0.96c0.79,0,1.59,0.13,2.35,0.36c0.37,0.11,0.91,0.59,0.9,0.86 c-0.03,0.42-0.44,0.84-0.77,1.18c-0.15,0.15-0.5,0.11-0.77,0.12c-3.33,0.11-6.68,0.14-10,0.35c-5.64,0.35-11.29,0.75-16.92,1.24 C324.01,321.79,319.71,322.35,315.98,322.76z"></path> <path class="st0" d="M336.66,305.98c-2.53,0.29-4.79,0.24-6.81-1.01c-0.46-0.29-0.92-1.22-0.8-1.72 c1.94-8.59,3.96-17.16,5.98-25.72c0.18-0.77,0.51-1.51,0.86-2.22c0.14-0.28,0.52-0.63,0.78-0.62c0.28,0.01,0.62,0.36,0.79,0.65 c0.18,0.3,0.26,0.7,0.27,1.06c0.12,4.76,0,9.49-0.67,14.23c-0.58,4.13-0.71,8.33-0.95,12.5 C336.08,303.98,336.44,304.87,336.66,305.98z"></path> <path class="st0" d="M343.92,308c2.79-0.06,5.58-0.53,8.37-0.8c0.69-0.06,1.41-0.21,2.05-0.04c0.46,0.12,0.8,0.69,1.19,1.05 c-0.4,0.26-0.79,0.71-1.21,0.76c0,0-7.62,0.81-10.57,0.85s-21.23,0.81-24.82,0.77c-2.21,0.05-4.42,0.04-6.63-0.01 c-1.18-0.03-1.13-0.71-0.61-1.51c0.81-1.26,2.12-1.65,3.45-1.62c3.3-0.15,4.47-0.1,4.47-0.1s1.14,0.85,1.17,0.69 c0.04-0.16,0.04-0.61,0.24-0.57C321.23,307.51,337.91,308.13,343.92,308z"></path> <path class="st0" d="M329.89,313.54c0.24,0.08,0.47,0.21,0.72,0.23c3.36,0.34,6.71,0.84,10.08,0.95 c4.64,0.15,9.29,0.04,13.94-0.05c0.42-0.01,1.23-0.7,1.18-0.92c-0.12-0.57-0.52-1.25-1.01-1.54c-0.55-0.32-1.33-0.37-2-0.33 c-2.42,0.14-4.84,0.51-7.25,0.53c-4.55,0.02-9.1-0.17-13.65-0.19c-0.72,0-1.26-0.04-1.99,0.22 C329.04,313.1,329.17,313.3,329.89,313.54z"></path> <path class="st0" d="M345.15,177.28c-2.57,0.15-5.41,0.6-7.96,0.97c-2.31,0.01-2.1,0.34-0.86,0.56c1.24,0.22,0.9,0.71-0.49,0.67 c-1.39-0.04-1.65,0.41-0.41,0.49c1.24,0.07,1.65,0.19,2.51,0.32c0.91,0.21,1.88,0.26,2.82,0.27c2.41,0.03,4.83,0.01,7.23,0.01 c0.92-0.01,0.28-0.49-0.1-0.64s0.67-1.12,0.86-1.46c0.19-0.34-0.41-0.26-0.94-0.64C347.29,177.47,345.98,177.3,345.15,177.28z"></path> <path class="st0" d="M341.77,167.37c0.11-1.65,0.22-3.17,0.34-5.01C343.71,164.08,343.47,166.4,341.77,167.37z"></path> </g> <path class="st0" d="M340.42,174.91c-1.69-0.24-2.21-0.37-1.54-0.82c0.67-0.45,2.36-1.05,3-0.97c0.64,0.07,1.95-0.52,2.7-0.64 c0.75-0.11,0.9,0.41,0.67,1.27c-0.22,0.86-0.3,0.79-1.54,1.2C342.48,175.36,341.73,175.1,340.42,174.91z"></path> <path class="st0" d="M366.86,354.97c-1.52-0.5-2.02-1-1.35-1.09c0.67-0.09,0.35-0.41-0.17-0.82c-0.53-0.41,0.06-0.35-1.41-3.98 c-1.46-3.63-5.92-11.36-8.35-15.35c-2.43-3.98-2.96-5.13-3.07-7s-0.2-4.16,0.35-4.31c0.55-0.15,2.4,1.99,3.66,4.86 c0.94,0.59,1.49,1.02,2.34,2.7c0.85,1.67,2.56,4.71,4.72,7.12c2.05,2.29,2.31,2.67,3.92,4.86c1.61,2.2,2.78,3.46,2.78,3.46 l7.32-7.73c0,0,5.13,6.53,13.5,6.53c8.38,0,11.16-3.98,11.16-7.23s-0.82-6.5-9.87-8.88c-9.05-2.37-16.52-5.77-19.92-10.1 c-3.4-4.33-3.57-8.88-3.57-12.97s3.57-21.44,26.71-21.44c12.36,0,18.86,3.87,22.2,7.38l-10.43,11.6 c-2.81-2.46-7.32-4.74-11.77-4.74c-4.45,0-10.55,2.75-10.55,7.85s6.74,7.27,16.23,10.08c9.49,2.81,16.69,7.09,16.69,19.39 c0,14.18-9.96,23.55-26.42,23.55c-8.73,0-14.47-1.64-16.17-2.29s-3.28-0.41-3.28-0.41L366.86,354.97z"></path> <path class="st0" d="M269.32,357.02c0,0,19.08,0,19.49,0s7.65-0.51,8.57-1.22s1.43-2.04,1.12-2.86s2.14-4.18,3.26-4.79 s2.55-5.31,2.86-5.92s1.63-3.67,1.84-3.98c0.2-0.31,0.92-2.45,1.22-3.37s3.88-6.53,3.98-6.94s0.2-1.53-1.74-1.53 s-2.96,0.1-3.06,1.02c-0.1,0.92-2.14,3.47-2.65,4.08s-3.57,6.53-5.41,8.77c-1.84,2.25-6.43,7.55-7.34,8.67 c-0.92,1.12-4.08,5.31-4.08,5.31l-24.28-34.99l23.36-33.97h-19.28l-14.38,25.2l-15.51-25.2H217.7l23.57,34.38l-25,37.34h18.57 l17.34-28.87L269.32,357.02z"></path> <polygon class="st0" points="151.39,285.3 94.45,285.3 94.45,299.08 115.56,299.08 115.56,357.02 131,357.02 131,299.08 151.39,299.08 "></polygon> <polygon class="st0" points="175.58,342.52 175.58,327.84 206.77,327.84 206.77,313.34 175.58,313.34 175.58,299.8 208.83,299.8 208.83,285.3 175.58,285.3 170.53,285.3 160.14,285.3 160.14,357.02 170.53,357.02 175.58,357.02 210.38,357.02 210.38,342.52 "></polygon> </g> <g> <path class="st1" d="M36.69,221.57c1.17,30.92,5.47,62.41,15.96,91.67c5.14,14.7,12.24,28.76,17.66,43.33 c3.45,7.22-9.56,19.61-14.22,11.19c-13.82-36.61-26.5-73.97-29.78-113.21c-7.76-48.62,0.36-99.69,23.82-143.08 C62.55,87.94,79.43,66.9,98.7,48.62c17.67-17.03,44.92-37.62,68.59-18.99c3.41,2.7,5.02,6.41,5.48,10.61 c4.32,32.42-27.69,83.88-43.75,112.72c-12.91,22.03-27.81,42.94-38.92,65.98c-3.86,8.04-8.12,15.93-13.97,22.76 c-11.48,13.95-32.74,20.6-16.56-5.02c24.15-36.04,118.39-159.27,101.5-198.42c-8.46-15.33-43.6,7.67-52.21,15.87 C60.72,95.62,37.28,158.95,36.69,221.57z"></path> <path class="st1" d="M123.72,245.23c6.41-7.49,4.15-25.74,12.99-30.9c2.98-1.55,8.32-2.82,9.83,1.05 c1.18,5.97,1.7,11.38,3.32,17.43c13.27-10.54,24.51-23.26,32.94-37.98c3.52-5.21,5.07-13.64,12.45-14.4 c5.02-0.71,9.93,0.19,14.77,1.34c4.23,1.01,6.17,4.97,5.5,9.81c-0.98,7.91-2.22,15.83-1.88,23.82c0.12,3.68,6.2,2.6,8.77,3.66 c1.78,0.17,4.36,2.19,2.9,4c-2.1,0.97-4.21,2.21-6.43,2.53c-3.39,0.5-6.88,0.35-10.32,0.42c-1.65,0.03-2.64-0.75-3.35-2.36 c-4.5-9.93-1.32-20.69-1.46-31.12c0.05-5.38-9.11-2.46-10.88,0.74c-7.51,10.3-11.62,22.54-18.64,33.14 c-4.73,5.68-11.27,10.07-16.74,15.09c-4.32,3.44-12.71,13.12-15.87,3.59c-1.43-3.59-0.59-8.39-3.26-11.33 c-0.31,0.32-0.77,0.58-0.91,0.96c-2.45,6.39-4.12,13.06-6.46,19.46c-2.4,6.08-6.74,10.07-13.33,11.33 c-1.62,0.31-2.63-0.55-3.47-1.73c-6.55-9.26-6.25-21.27-5.23-32.1c2.01-15.95,8.31-32.76,22.63-41.47 c4.88-3.98,16.26,0.44,12.06,6.78c-3.47,6.08-11.41,4.54-16.12,8.84C119.76,213.97,117.1,235.78,123.72,245.23z"></path> <path class="st1" d="M244.55,270.31c-6.41-0.21-11.51-3.46-10.66-10.35c0.67-5.84,3.27-11.06,5.61-16.34 c1.17-2.64,5.35-4.36,8.14-3.57c1.33,0.37,2.25,1.19,2.03,2.62c-0.66,4.5-2.11,8.96-1.8,13.54c0.35,4.08,7.29-0.08,9.29-0.88 c4.96-2.91,8.59-7.29,11.59-12.06c7.16-10.7-1.6-21.84-5.87-31.79c-3.1-6.45-5.95-14.42-0.68-20.52 c9.24-12.69,20.89-24.08,36.18-28.91c4.81-1.69,12.31-0.18,13.45,5.54c0.9,11.44-9.59,25.57-21.83,23.88 c-3.98-0.89-2.15-5.58-1.54-8.38c-0.03-9.09-22.28,16.34-13.81,25.66c5.91,9.48,18.97,21.57,9.72,32.82 c-10.51,12.14-22.42,27.66-39.77,28.57C244.58,270.19,244.56,270.25,244.55,270.31z"></path> <path class="st1" d="M243.62,143.32c0.46-11.15,13.21-18.21,14.07-30.16c0.16-0.92,0.57-2.43,1.08-2.53 c1.34-0.26,1.55,1.22,1.8,2.17c2.61,9.63,7.35,20.44-0.52,28.97C257.32,146.49,242.98,153.33,243.62,143.32z"></path> <path class="st1" d="M236.61,193.13c-1.99-16.09,18.39-4.16,14.02,0.14c-9.4,8.55-7.67,31.78-13.8,34.34 c-0.41,0.1-1.52-1.17-1.73-1.97c-3.21-10.64,0.96-20.63,1.82-31.4C236.79,194.22,236.74,193.15,236.61,193.13z"></path> </g> </g> </svg> 